<?xml version="1.0" encoding="UTF-8" standalone="no"?>
<!DOCTYPE svg PUBLIC "-//W3C//DTD SVG 1.1//EN" "http://www.w3.org/Graphics/SVG/1.1/DTD/svg11.dtd">
<svg version="1.1" xmlns="http://www.w3.org/2000/svg" xmlns:xlink="http://www.w3.org/1999/xlink" preserveAspectRatio="xMidYMid meet" viewBox="0 0 1000 1000" width="1000" height="1000"><defs><path d="M795.64 198.48L682.57 198.48C682.57 130.64 682.57 92.95 682.57 85.42C682.58 64.61 665.73 47.73 644.89 47.73C614.73 47.73 373.52 47.73 343.37 47.73C322.53 47.73 305.68 64.61 305.68 85.42C305.68 92.95 305.68 130.64 305.68 198.48L192.61 198.48C147.39 198.48 122.26 198.48 117.24 198.48C96.39 198.48 79.55 215.37 79.55 236.17C79.55 256.98 96.39 273.86 117.24 273.86C119.75 273.86 132.31 273.86 154.92 273.86C154.92 613.07 154.92 801.52 154.92 839.2C154.92 901.54 205.65 952.27 267.99 952.27C313.22 952.27 675.04 952.27 720.27 952.27C782.6 952.27 833.33 901.54 833.33 839.2C833.33 801.52 833.33 613.07 833.33 273.86C855.95 273.86 868.51 273.86 871.02 273.86C891.86 273.86 908.71 256.98 908.71 236.17C908.71 215.37 891.87 198.48 871.02 198.48C860.97 198.48 835.85 198.48 795.64 198.48ZM607.2 123.11L607.2 198.49L381.06 198.49L381.06 123.11L607.2 123.11ZM720.27 876.89C675.04 876.89 313.22 876.89 267.99 876.89C247.19 876.89 230.3 859.97 230.3 839.2C230.3 801.52 230.3 613.07 230.3 273.86L343.37 273.86L644.89 273.86L757.96 273.86L757.96 839.2C746.7 864.33 734.13 876.89 720.27 876.89Z" id="a6QiFUps2c"></path><path d="M343.37 386.93C343.37 420.85 343.37 692.22 343.37 726.14C343.37 746.94 360.22 763.83 381.06 763.83C401.9 763.83 418.75 746.94 418.75 726.14C418.75 692.22 418.75 420.85 418.75 386.93C418.75 366.13 401.9 349.24 381.06 349.24C360.22 349.24 343.37 366.13 343.37 386.93Z" id="c3EYcTjRXU"></path><path d="M569.51 386.93C569.51 420.85 569.51 692.22 569.51 726.14C569.51 746.94 586.36 763.83 607.2 763.83C628.04 763.83 644.89 746.94 644.89 726.14C644.89 692.22 644.89 420.85 644.89 386.93C644.89 366.13 628.04 349.24 607.2 349.24C586.36 349.24 569.51 366.13 569.51 386.93Z" id="a1ItFi3FqG"></path></defs><g><g><g><use xlink:href="#a6QiFUps2c" opacity="1" fill="#ffffff" fill-opacity="1"></use><g><use xlink:href="#a6QiFUps2c" opacity="1" fill-opacity="0" stroke="#000000" stroke-width="0" stroke-opacity="0"></use></g></g><g><use xlink:href="#c3EYcTjRXU" opacity="1" fill="#ffffff" fill-opacity="1"></use><g><use xlink:href="#c3EYcTjRXU" opacity="1" fill-opacity="0" stroke="#000000" stroke-width="0" stroke-opacity="0"></use></g></g><g><use xlink:href="#a1ItFi3FqG" opacity="1" fill="#ffffff" fill-opacity="1"></use><g><use xlink:href="#a1ItFi3FqG" opacity="1" fill-opacity="0" stroke="#000000" stroke-width="0" stroke-opacity="0"></use></g></g></g></g></svg>