<svg width="62" height="32" viewBox="0 0 62 32" fill="none" xmlns="http://www.w3.org/2000/svg">
<path d="M31 1C18.25 1 1 13 1 16C1 19 18.25 31 31 31C43.75 31 61 18.5 61 16C61 13.5 43.75 1 31 1Z" stroke="black"/>
<path d="M43.5 15.5C43.5 22.1091 37.9222 27.5 31 27.5C24.0778 27.5 18.5 22.1091 18.5 15.5C18.5 8.89088 24.0778 3.5 31 3.5C37.9222 3.5 43.5 8.89088 43.5 15.5Z" stroke="black"/>
<path d="M40.5 15.5C40.5 20.4467 36.2712 24.5 31 24.5C25.7288 24.5 21.5 20.4467 21.5 15.5C21.5 10.5533 25.7288 6.5 31 6.5C36.2712 6.5 40.5 10.5533 40.5 15.5Z" stroke="black"/>
</svg>
