<svg width="300" height="300" viewBox="0 0 300 300" fill="none" xmlns="http://www.w3.org/2000/svg">
<rect width="300" height="300" fill="white"/>
<path d="M167.685 135.487C166.25 133.372 164.511 131.509 162.517 129.952C160.499 128.376 158.267 127.151 155.884 126.31C153.42 125.441 150.839 125 148.214 125C145.473 125 142.784 125.48 140.223 126.426C137.748 127.34 135.448 128.669 133.386 130.374C131.344 132.062 129.595 134.072 128.185 136.347C126.749 138.664 125.707 141.194 125.086 143.864C124.688 145.58 125.707 147.306 127.364 147.719C127.606 147.779 127.848 147.808 128.088 147.808C129.48 147.808 130.743 146.824 131.083 145.359C131.992 141.446 134.176 137.898 137.233 135.37C138.761 134.107 140.464 133.123 142.295 132.446C144.189 131.746 146.181 131.391 148.214 131.391C152.072 131.391 155.735 132.659 158.805 135.057C160.883 136.68 162.597 138.78 163.807 141.15C163.465 141.15 160.732 141.15 160.39 141.15C158.686 141.15 157.306 142.581 157.306 144.346C157.306 146.111 158.686 147.541 160.39 147.541C161.543 147.541 170.763 147.541 171.916 147.541C173.619 147.541 175 146.111 175 144.346C175 143.135 175 133.45 175 132.239C175 130.474 173.619 129.043 171.916 129.043C170.213 129.043 168.832 130.474 168.832 132.239C168.832 133.261 168.832 136.84 168.832 137.351C168.477 136.714 168.096 136.092 167.685 135.487Z" fill="#5F84FF"/>
<path d="M131.168 162.628C133.005 165.941 135.563 168.773 138.667 170.906C142.559 173.58 147.092 174.995 151.778 174.999C151.781 174.999 151.783 175 151.786 175C151.788 175 151.79 174.999 151.792 174.999C151.794 174.999 151.797 175 151.799 175C151.803 175 151.806 174.999 151.809 174.999C154.542 174.997 157.223 174.517 159.776 173.573C162.252 172.659 164.552 171.33 166.614 169.626C168.656 167.937 170.405 165.928 171.815 163.653C173.251 161.335 174.293 158.806 174.914 156.135C175.312 154.42 174.293 152.694 172.636 152.281C170.981 151.868 169.315 152.924 168.917 154.64C168.008 158.554 165.824 162.102 162.767 164.63C161.239 165.893 159.536 166.877 157.705 167.553C155.813 168.253 153.823 168.607 151.792 168.608C148.317 168.606 144.958 167.559 142.076 165.579C139.591 163.871 137.578 161.561 136.201 158.85C136.542 158.85 139.269 158.85 139.61 158.85C141.314 158.85 142.694 157.419 142.694 155.654C142.694 153.889 141.314 152.459 139.61 152.459C138.457 152.459 129.237 152.459 128.084 152.459C126.381 152.459 125 153.889 125 155.654C125 156.865 125 166.55 125 167.76C125 169.525 126.381 170.956 128.084 170.956C129.787 170.956 131.168 169.525 131.168 167.76C131.168 167.247 131.168 163.141 131.168 162.628Z" fill="#5078FA"/>
</svg>
