<svg width="35" height="34" viewBox="0 0 35 34" fill="none" xmlns="http://www.w3.org/2000/svg">
<path fill-rule="evenodd" clip-rule="evenodd" d="M21.0111 23.5219C18.4026 25.1443 26.5137 18.1745 24.2056 20.8239C24.2633 20.82 24.1563 20.9669 23.7974 21.3352C23.7974 21.3352 29.9615 26.48 32.9874 29.0984C34.0378 30.053 32.1426 31.9582 30.8549 30.9635C28.1148 28.7296 21.631 23.1776 21.621 23.1686L21.0111 23.5219Z" fill="white"/>
<path d="M15.41 25.5855C18.2265 25.559 21.0144 24.4258 23.0193 22.5011C25.4004 20.2151 26.6265 16.8332 26.1988 13.6042C25.466 8.07128 20.7836 4.31641 15.34 4.31641C11.204 4.31641 7.1845 6.82975 5.42137 10.4741C4.07168 13.2642 4.06895 16.6329 5.42137 19.4278C7.17192 23.0467 11.1258 25.5467 15.2695 25.5855C15.3165 25.5855 15.3636 25.5855 15.41 25.5855ZM15.281 23.8127C11.075 23.7734 7.15059 20.6136 6.3702 16.5622C5.82004 13.7062 6.85856 10.6154 9.022 8.58713C11.5475 6.21828 15.5172 5.42512 18.8182 6.76759C21.7713 7.96875 23.9818 10.7578 24.3892 13.8306C24.7381 16.4645 23.7652 19.2249 21.8533 21.1262C20.1761 22.7943 17.824 23.7899 15.3986 23.8127C15.3592 23.8127 15.3204 23.8127 15.281 23.8127Z" fill="white"/>
</svg>
