<?xml version="1.0" encoding="UTF-8" standalone="no"?>
<!DOCTYPE svg PUBLIC "-//W3C//DTD SVG 1.1//EN" "http://www.w3.org/Graphics/SVG/1.1/DTD/svg11.dtd">
<svg version="1.1" xmlns="http://www.w3.org/2000/svg" xmlns:xlink="http://www.w3.org/1999/xlink" preserveAspectRatio="xMidYMid meet" viewBox="0 0 1000 1000" width="1000" height="1000"><defs><path d="M796.49 261.64C772.06 226.89 742.47 196.3 708.53 170.72C674.18 144.84 636.2 124.72 595.64 110.91C553.7 96.63 509.77 89.39 465.1 89.39C418.44 89.39 372.68 97.27 329.09 112.81C286.97 127.83 247.82 149.65 212.73 177.66C177.98 205.38 148.2 238.39 124.21 275.75C99.77 313.82 82.03 355.36 71.47 399.22C64.69 427.4 82.04 455.75 110.23 462.53C114.35 463.52 118.48 464 122.55 464C146.25 464 167.75 447.84 173.54 423.78C189 359.5 226.18 301.23 278.21 259.71C304.21 238.96 333.19 222.8 364.35 211.69C396.59 200.19 430.49 194.36 465.1 194.36C530.75 194.36 593.09 215.18 645.35 254.57C680.72 281.22 709.88 315.71 730.48 354.64C724.66 354.64 678.14 354.64 672.32 354.64C643.33 354.64 619.83 378.14 619.83 407.13C619.83 436.12 643.33 459.62 672.32 459.62C691.94 459.62 848.87 459.62 868.49 459.62C897.48 459.62 920.98 436.12 920.98 407.13C920.98 387.24 920.98 228.17 920.98 208.29C920.98 179.3 897.48 155.8 868.49 155.8C839.5 155.8 816 179.3 816 208.29C816 225.08 816 283.85 816 292.24C809.97 281.79 803.48 271.57 796.49 261.64Z" id="b13jBDyTCO"></path><path d="M174.98 707.4C206.25 761.82 249.78 808.33 302.6 843.36C368.84 887.29 445.99 910.53 525.75 910.6C525.8 910.6 525.84 910.61 525.88 910.61C525.92 910.61 525.95 910.6 525.99 910.6C526.03 910.6 526.07 910.61 526.11 910.61C526.17 910.61 526.22 910.6 526.28 910.6C572.79 910.56 618.42 902.68 661.88 887.18C704.01 872.16 743.16 850.34 778.25 822.34C813 794.61 842.78 761.6 866.77 724.24C891.21 686.17 908.95 644.63 919.51 600.77C926.29 572.59 908.94 544.24 880.75 537.46C852.57 530.68 824.22 548.03 817.44 576.21C801.97 640.49 764.8 698.76 712.77 740.29C686.77 761.03 657.79 777.19 626.63 788.3C594.42 799.79 560.56 805.61 525.99 805.63C466.85 805.6 409.67 788.4 360.63 755.87C318.34 727.83 284.08 689.88 260.64 645.35C266.44 645.35 312.86 645.35 318.66 645.35C347.65 645.35 371.15 621.85 371.15 592.86C371.15 563.87 347.65 540.38 318.66 540.38C299.04 540.38 142.11 540.38 122.49 540.38C93.5 540.38 70 563.87 70 592.86C70 612.75 70 771.82 70 791.7C70 820.69 93.5 844.19 122.49 844.19C151.48 844.19 174.98 820.69 174.98 791.7C174.98 783.27 174.98 715.83 174.98 707.4Z" id="aG3kJ0bIj"></path></defs><g><g><g><use xlink:href="#b13jBDyTCO" opacity="1" fill="#ffffff" fill-opacity="1"></use><g><use xlink:href="#b13jBDyTCO" opacity="1" fill-opacity="0" stroke="#14e46d" stroke-width="0" stroke-opacity="0"></use></g></g><g><use xlink:href="#aG3kJ0bIj" opacity="1" fill="#ffffff" fill-opacity="1"></use><g><use xlink:href="#aG3kJ0bIj" opacity="1" fill-opacity="0" stroke="#14e46d" stroke-width="0" stroke-opacity="0"></use></g></g></g></g></svg>