<svg width="740" height="640" viewBox="0 0 740 640" fill="none" xmlns="http://www.w3.org/2000/svg">
<path d="M526 236.43C527.03 221.08 520.89 205.72 508.6 193.44C507.68 192.52 500.31 185.15 499.39 184.23C488.13 172.96 471.75 166.82 456.39 166.82C442.06 167.85 427.73 164.77 413.4 161.7C356.07 146.35 293.62 169.89 247.56 214.94C202.51 259.98 178.97 323.45 194.32 380.78C198.42 395.11 200.47 409.44 199.44 423.77C198.42 439.13 204.56 454.48 216.85 466.77C217.77 467.69 225.14 475.06 226.06 475.98C237.32 487.24 253.7 493.38 269.05 493.38C283.39 492.36 297.72 495.43 312.05 498.5C369.38 513.86 431.82 490.31 477.89 445.27C522.93 400.23 546.48 336.76 531.12 279.43C527.03 265.1 524.98 250.77 526 236.43Z" fill="#FFE500"/>
<path d="M413.4 212.89C427.73 216.98 442.06 219.03 456.39 218.01C471.75 216.98 487.1 223.13 499.39 235.41C500.31 236.33 507.68 243.7 508.6 244.62C519.86 255.88 526 272.26 526 287.62C524.98 301.95 528.05 316.28 531.12 330.61C532.15 334.71 533.17 337.78 533.17 341.88C536.24 321.4 536.24 299.9 531.12 279.43C527.03 265.1 524.98 250.77 526 236.43C527.03 221.08 520.89 205.72 508.6 193.44C507.68 192.52 500.31 185.15 499.39 184.23C488.13 172.96 471.75 166.82 456.39 166.82C442.06 167.85 427.73 164.77 413.4 161.7C356.07 146.35 293.62 169.89 247.56 214.94C205.58 257.93 182.04 315.26 192.28 369.52C198.42 331.64 218.89 295.81 247.56 266.12C292.6 221.08 356.07 197.53 413.4 212.89Z" fill="#FFF48C"/>
<path d="M526 236.43C527.03 221.08 520.89 205.72 508.6 193.44C507.68 192.52 500.31 185.15 499.39 184.23C488.13 172.96 471.75 166.82 456.39 166.82C442.06 167.85 427.73 164.77 413.4 161.7C356.07 146.35 293.62 169.89 247.56 214.94C202.51 259.98 178.97 323.45 194.32 380.78C198.42 395.11 200.47 409.44 199.44 423.77C198.42 439.13 204.56 454.48 216.85 466.77C217.77 467.69 225.14 475.06 226.06 475.98C237.32 487.24 253.7 493.38 269.05 493.38C283.39 492.36 297.72 495.43 312.05 498.5C369.38 513.86 431.82 490.31 477.89 445.27C522.93 400.23 546.48 336.76 531.12 279.43C527.03 265.1 524.98 250.77 526 236.43Z" stroke="#45413C"/>
<path d="M552.62 148.4C578.21 141.23 583.33 156.59 584.36 168.87C584.36 175.01 580.26 180.13 574.12 181.15C558.76 183.2 528.05 188.32 500.41 207.77C486.08 209.82 485.06 192.41 485.06 192.41C498.57 183.61 513.72 159.66 552.62 148.4Z" fill="#DEBB7E"/>
<path d="M552.62 168.87C570.02 163.75 578.21 169.89 582.31 178.08C584.36 176.04 585.38 172.96 585.38 169.89C584.36 158.63 578.21 143.28 553.64 149.42C514.74 159.66 486.08 193.44 486.08 193.44C486.08 193.44 486.08 200.6 491.2 205.72C501.44 195.49 523.96 176.04 552.62 168.87Z" fill="#F0D5A8"/>
<path d="M552.62 148.4C578.21 141.23 583.33 156.59 584.36 168.87C584.36 175.01 580.26 180.13 574.12 181.15C558.76 183.2 528.05 188.32 500.41 207.77C486.08 209.82 485.06 192.41 485.06 192.41C498.57 183.61 513.72 159.66 552.62 148.4Z" fill="#AA9A7E"/>
<path d="M552.62 148.4C578.21 141.23 583.33 156.59 584.36 168.87C584.36 175.01 580.26 180.13 574.12 181.15C558.76 183.2 528.05 188.32 500.41 207.77C486.08 209.82 485.06 192.41 485.06 192.41C498.57 183.61 513.72 159.66 552.62 148.4Z" stroke="#45413C"/>
<path d="M457.42 92.09C412.37 49.1 366.31 62.4 349.93 69.57C345.83 71.62 343.78 75.71 343.78 79.81C343.78 96.19 347.88 135.09 382.69 160.68C422.61 191.39 463.56 156.59 485.06 192.41C479.53 172.35 507.58 138.16 457.42 92.09Z" fill="#728F66"/>
<path d="M457.42 92.09C412.37 49.1 366.31 62.4 349.93 69.57C345.83 71.62 343.78 75.71 343.78 79.81C343.78 96.19 347.88 135.09 382.69 160.68C422.61 191.39 463.56 156.59 485.06 192.41C479.53 172.35 507.58 138.16 457.42 92.09Z" fill="#728F66"/>
<path d="M457.42 121.78C477.89 140.21 486.08 160.68 489.15 178.08C492.22 158.63 492.22 123.83 457.42 91.07C412.37 49.1 366.31 62.4 349.93 69.57C345.83 71.62 343.78 75.71 343.78 79.81C343.78 84.93 344.81 93.12 346.86 103.35C346.86 102.33 347.88 101.31 349.93 100.28C366.31 93.12 412.37 78.78 457.42 121.78Z" fill="#728F66"/>
<path d="M457.42 92.09C412.37 49.1 366.31 62.4 349.93 69.57C345.83 71.62 343.78 75.71 343.78 79.81C343.78 96.19 347.88 135.09 382.69 160.68C422.61 191.39 463.56 156.59 485.06 192.41C479.53 172.35 507.58 138.16 457.42 92.09Z" stroke="#45413C"/>
<path d="M485.06 192.41C485.06 192.41 485.06 132.02 427.73 106.42" stroke="#45413C"/>
</svg>
