<svg width="30" height="30" viewBox="0 0 30 30" fill="none" xmlns="http://www.w3.org/2000/svg">
<rect x="0.5" y="0.5" width="29" height="29" rx="14.5" fill="white" stroke="#728F66"/>
<path d="M15.3425 18.4371C13.3438 20.4664 9.99625 23.8593 8.14941 25.7184C7.39326 26.4795 6.27057 26.4676 5.51763 25.7032V25.7032C4.67931 24.8521 4.67903 23.4722 5.51699 22.6208L12.4872 15.5382M18.1598 15.5768L25.2186 8.37073C25.9973 7.57587 25.9955 6.29121 25.2148 5.49853V5.49853C24.4327 4.70453 23.1648 4.70426 22.3824 5.49792L15.3045 12.6779" stroke="#728F66" stroke-width="0.5"/>
<path d="M12.4874 15.5769C10.4856 13.5446 7.1176 10.1183 5.27706 8.23291C4.52754 7.46514 4.53926 6.32528 5.29214 5.5609V5.5609C6.13048 4.70977 7.48964 4.70957 8.32821 5.56047L15.3427 12.678M15.3046 18.4372L22.3641 25.563C23.147 26.3533 24.4122 26.3515 25.1929 25.5589V25.5589C25.975 24.7648 25.9752 23.4774 25.1933 22.6831L18.16 15.5383" stroke="#728F66" stroke-width="0.5"/>
</svg>
