<svg width="110" height="82" viewBox="0 0 110 82" fill="none" xmlns="http://www.w3.org/2000/svg">
<rect x="1.85486" y="2.38171" width="106.333" height="78.1183" rx="8.5" fill="white" stroke="#728F66" stroke-width="3"/>
<path d="M55.0379 25.1285C44.4071 25.1285 35.758 34.1456 35.758 45.2275C35.758 56.3094 44.4071 65.3264 55.0379 65.3264C65.6698 65.3264 74.3199 56.3094 74.3199 45.2275C74.3199 34.1456 65.6698 25.1285 55.0379 25.1285ZM55.0379 61.0504C46.6677 61.0504 39.859 53.9517 39.859 45.2264C39.859 36.5011 46.6677 29.4025 55.0379 29.4025C63.4081 29.4025 70.2189 36.5011 70.2189 45.2264C70.2189 53.9517 63.4081 61.0504 55.0379 61.0504Z" fill="#728F66"/>
<path d="M55.1773 32.3447C48.2865 32.3447 42.6804 38.1887 42.6804 45.3707C42.6804 46.5506 43.5991 47.5082 44.7309 47.5082C45.8628 47.5082 46.7814 46.5506 46.7814 45.3707C46.7814 40.5453 50.5482 36.6197 55.1773 36.6197C56.3092 36.6197 57.2278 35.6621 57.2278 34.4822C57.2278 33.3023 56.3102 32.3447 55.1773 32.3447Z" fill="#728F66"/>
<path d="M88.855 13.8403H86.8045V11.1235C86.8045 7.67039 84.2239 5.29028 80.6693 5.29028H71.442C67.9254 5.29028 65.2741 7.7249 65.2741 11.1235V13.8403H21.188C15.5348 13.8403 10.9355 18.5075 10.9355 24.4006V65.0132C10.9355 70.9063 15.5348 75.8279 21.188 75.8279H88.855C94.5082 75.8279 99.1075 70.9063 99.1075 65.0132V24.4006C99.1075 18.5075 94.5082 13.8403 88.855 13.8403ZM69.3751 11.1235C69.3751 9.48514 71.2298 9.56529 71.442 9.56529H80.6693C81.0097 9.56529 82.7034 9.51934 82.7034 11.1235V13.8403H69.3751V11.1235ZM95.0065 65.1404C95.0065 68.6812 92.2516 71.5529 88.855 71.5529H21.188C17.7914 71.5529 15.0365 68.6812 15.0365 65.1404V24.5278C15.0365 20.987 17.7914 18.1153 21.188 18.1153H88.855C92.2516 18.1153 95.0065 20.987 95.0065 24.5278V65.1404Z" fill="#728F66"/>
</svg>
