<svg width="80" height="80" viewBox="0 0 80 80" fill="none" xmlns="http://www.w3.org/2000/svg">
<rect x="1.5" y="2.14514" width="76.3548" height="76.3548" rx="8.5" fill="white" stroke="#728F66" stroke-width="3"/>
<path d="M70.7593 15.8157L64.6075 9.85892C63.7573 9.0346 62.6271 8.58057 61.4242 8.58057C60.2213 8.58057 59.0913 9.03368 58.2409 9.85799L29.3982 37.8735L24.8456 54.3159L41.9461 49.881L70.7573 21.9813C71.6095 21.157 72.0807 20.0626 72.0807 18.8981C72.0807 17.7335 71.6095 16.6391 70.7593 15.8157ZM31.7588 38.3842L53.5793 17.1743L63.2076 26.4953L41.3441 47.6655L31.7588 38.3842ZM30.8431 40.2969L39.3288 48.5126L32.5864 50.2601L29.0354 46.8215L30.8431 40.2969ZM69.3122 20.5812L66.2128 23.5842L56.5805 14.2632L59.688 11.2571C60.6139 10.3567 62.2347 10.3576 63.1624 11.2571L69.3143 17.2148C69.7792 17.664 70.0368 18.2617 70.0368 18.897C70.0368 19.5324 69.7792 20.131 69.3122 20.5812Z" fill="#728F66"/>
<path d="M27.0672 52.122L28.7062 47.3407L32.0189 50.5753L27.0672 52.122Z" fill="white"/>
<path d="M46.1014 13.1541H21.4623C15.9395 13.1541 11.4623 17.6312 11.4623 23.1541V64.1345C11.4623 69.6574 15.9395 74.1345 21.4623 74.1345H51.8464C57.3692 74.1345 61.8464 69.6574 61.8464 64.1345V29.1614M46.1014 13.1541V23.0634M46.1014 13.1541L50.8249 17.6132" stroke="#728F66" stroke-width="3"/>
<path d="M17.7603 36.4028H32.3244" stroke="#728F66" stroke-width="3"/>
<path d="M18.5475 45.5499H28.3882M44.9204 45.5499H55.9419M53.9738 36.7839H55.9419" stroke="#728F66" stroke-width="3"/>
<line x1="18.5475" y1="55.1027" x2="55.5483" y2="55.1027" stroke="#728F66" stroke-width="3"/>
</svg>
